<svg xmlns="http://www.w3.org/2000/svg" width="978" height="712" viewBox="0 0 978 712" fill="none"><g opacity="0.3"><mask id="path-1-outside-1_20162_2433" maskUnits="userSpaceOnUse" x="-0.662109" y="-0.558594" width="979" height="713" fill="black"><rect fill="white" x="-0.662109" y="-0.558594" width="979" height="713"></rect><path d="M378.093 349.549C431.177 166.906 437.475 31.0489 343.004 30.1492C248.534 30.1492 176.557 168.706 125.273 348.649C73.0893 531.292 62.2927 680.645 156.763 680.645C250.334 681.545 325.91 531.292 378.093 349.549ZM349.302 8.55598C475.263 8.55598 533.744 111.124 465.366 349.549C397.887 584.375 276.425 703.138 150.465 703.138C23.6048 703.138 -29.4785 584.375 38.0003 349.549C105.479 113.823 222.442 8.55598 349.302 8.55598ZM815.834 691.441H403.763L410.961 674.347C524.326 568.18 817.633 356.747 865.318 179.502C886.012 106.625 868.018 42.7453 801.438 42.7453C729.461 41.8455 661.083 98.5277 621.495 167.806L599.902 166.906C638.59 86.8314 725.862 9.45574 833.828 9.45574C930.098 9.45574 988.58 77.8342 963.388 173.204C914.803 356.747 646.687 496.203 502.732 618.564H764.55C821.232 618.564 832.929 587.974 851.823 551.086H865.318L815.834 691.441Z"></path></mask><path d="M378.093 349.549L369.878 347.161L369.874 347.174L369.87 347.188L378.093 349.549ZM343.004 30.1492L343.086 21.5938L343.045 21.5934H343.004V30.1492ZM125.273 348.649L133.499 351L133.501 350.994L125.273 348.649ZM156.763 680.645L156.845 672.089L156.804 672.089H156.763V680.645ZM465.366 349.549L473.589 351.912L473.59 351.907L465.366 349.549ZM38.0003 349.549L46.2233 351.912L46.2257 351.903L38.0003 349.549ZM378.093 349.549L386.309 351.937C412.901 260.442 428.118 179.622 424.42 121.155C422.572 91.9263 415.941 67.2221 402.635 49.5959C388.992 31.5232 369.047 21.8411 343.086 21.5938L343.004 30.1492L342.923 38.7047C364.197 38.9072 378.892 46.5447 388.978 59.9058C399.402 73.7135 405.592 94.5576 407.343 122.235C410.843 177.584 396.369 256.013 369.878 347.161L378.093 349.549ZM343.004 30.1492V21.5934C291.197 21.5934 247.352 59.5444 210.717 117.34C173.86 175.487 142.775 256.021 117.045 346.304L125.273 348.649L133.501 350.994C159.054 261.334 189.6 182.617 225.17 126.501C260.963 70.0323 300.342 38.705 343.004 38.705V30.1492ZM125.273 348.649L117.046 346.299C90.9015 437.805 74.8264 521.901 77.4748 583.505C78.7969 614.258 84.8171 640.497 97.5738 659.264C110.712 678.593 130.473 689.201 156.763 689.201V680.645V672.089C135.818 672.089 121.502 664.027 111.726 649.645C101.568 634.701 95.8352 612.187 94.5706 582.77C92.0456 524.037 107.461 442.135 133.499 351L125.273 348.649ZM156.763 680.645L156.681 689.2C208.337 689.697 252.875 648.641 290.23 588.079C327.937 526.948 360.135 443.096 386.317 351.91L378.093 349.549L369.87 347.188C343.868 437.745 312.186 519.89 275.666 579.096C238.795 638.872 198.76 672.492 156.845 672.089L156.763 680.645ZM349.302 8.55597V17.1118C379.662 17.1118 405.304 23.2924 425.775 35.6346C446.15 47.9189 461.965 66.6411 472.25 92.7759C493.01 145.531 491.184 228.491 457.142 347.19L465.366 349.549L473.59 351.907C507.927 232.181 511.049 144.645 488.173 86.5101C476.639 57.1999 458.491 35.3784 434.61 20.9805C410.826 6.64056 381.923 0.000183105 349.302 0.000183105V8.55597ZM465.366 349.549L457.143 347.186C389.93 581.089 270.365 694.582 150.465 694.582V703.138V711.694C282.486 711.694 405.845 587.662 473.589 351.912L465.366 349.549ZM150.465 703.138V694.582C120.091 694.582 94.7573 687.484 74.6962 673.838C54.67 660.215 39.2666 639.64 29.4298 611.573C9.61674 555.042 12.6518 468.741 46.2233 351.912L38.0003 349.549L29.7773 347.186C-4.13005 465.183 -8.2927 555.677 13.2813 617.233C24.1379 648.21 41.5742 672.002 65.0719 687.986C88.5345 703.946 117.409 711.694 150.465 711.694V703.138ZM38.0003 349.549L46.2257 351.903C113.347 117.428 228.294 17.1118 349.302 17.1118V8.55597V0.000183105C216.59 0.000183105 97.6116 110.218 29.7749 347.194L38.0003 349.549ZM815.834 691.441V699.997H821.889L823.903 694.286L815.834 691.441ZM403.763 691.441L395.878 688.121L390.878 699.997H403.763V691.441ZM410.961 674.347L405.113 668.102L403.783 669.347L403.076 671.027L410.961 674.347ZM865.318 179.502L857.088 177.165L857.072 177.222L857.056 177.28L865.318 179.502ZM801.438 42.7453L801.332 51.3004L801.385 51.3011H801.438V42.7453ZM621.495 167.806L621.139 176.354L626.341 176.571L628.924 172.051L621.495 167.806ZM599.902 166.906L592.198 163.184L586.532 174.912L599.546 175.455L599.902 166.906ZM963.388 173.204L971.658 175.394L971.66 175.389L963.388 173.204ZM502.732 618.564L497.191 612.045L479.456 627.12H502.732V618.564ZM851.823 551.086V542.53H846.592L844.208 547.185L851.823 551.086ZM865.318 551.086L873.387 553.93L877.407 542.53H865.318V551.086ZM815.834 691.441V682.886H403.763V691.441V699.997H815.834V691.441ZM403.763 691.441L411.649 694.762L418.846 677.667L410.961 674.347L403.076 671.027L395.878 688.121L403.763 691.441ZM410.961 674.347L416.81 680.592C444.954 654.234 484.309 621.307 528.612 583.685C572.81 546.153 621.739 504.107 668.645 459.798C715.535 415.503 760.56 368.801 796.912 321.909C833.201 275.098 861.237 227.605 873.58 181.725L865.318 179.502L857.056 177.28C845.557 220.022 819.048 265.425 783.388 311.425C747.79 357.344 703.462 403.369 656.894 447.359C610.342 491.335 561.708 533.132 517.536 570.642C473.471 608.062 433.651 641.376 405.113 668.102L410.961 674.347ZM865.318 179.502L873.549 181.839C884.177 144.41 885.258 108.084 874.027 80.5623C868.358 66.6703 859.506 54.9474 847.153 46.7392C834.802 38.5325 819.481 34.1895 801.438 34.1895V42.7453V51.3011C816.685 51.3011 828.581 54.9431 837.683 60.9913C846.782 67.0378 853.619 75.8398 858.184 87.0275C867.422 109.665 867.153 141.718 857.088 177.165L865.318 179.502ZM801.438 42.7453L801.545 34.1901C725.119 33.2347 654.391 92.9939 614.067 163.561L621.495 167.806L628.924 172.051C667.775 104.062 733.803 50.4562 801.332 51.3004L801.438 42.7453ZM621.495 167.806L621.851 159.258L600.258 158.358L599.902 166.906L599.546 175.455L621.139 176.354L621.495 167.806ZM599.902 166.906L607.606 170.628C645.304 92.6011 730.045 18.0115 833.828 18.0115V9.45575V0.899963C721.679 0.899963 631.875 81.0616 592.198 163.184L599.902 166.906ZM833.828 9.45575V18.0115C879.961 18.0115 915.96 34.3516 937.508 60.9517C958.992 87.4724 967.148 125.468 955.115 171.019L963.388 173.204L971.66 175.389C984.819 125.57 976.331 81.6918 950.804 50.1807C925.342 18.7491 883.965 0.899963 833.828 0.899963V9.45575ZM963.388 173.204L955.117 171.015C931.595 259.873 854.481 339.12 763.469 412.154C718.135 448.533 669.809 483.03 623.616 516.218C577.532 549.328 533.492 581.19 497.191 612.045L502.732 618.564L508.273 625.083C543.95 594.758 587.408 563.302 633.601 530.115C679.685 497.004 728.416 462.223 774.179 425.5C865.359 352.33 946.595 270.078 971.658 175.394L963.388 173.204ZM502.732 618.564V627.12H764.55V618.564V610.009H502.732V618.564ZM764.55 618.564V627.12C794.658 627.12 814.089 618.896 828.379 604.735C841.981 591.257 850.348 572.732 859.438 554.986L851.823 551.086L844.208 547.185C834.403 566.327 827.475 581.542 816.335 592.581C805.883 602.938 791.125 610.009 764.55 610.009V618.564ZM851.823 551.086V559.641H865.318V551.086V542.53H851.823V551.086ZM865.318 551.086L857.249 548.241L807.765 688.597L815.834 691.441L823.903 694.286L873.387 553.93L865.318 551.086Z" fill="url(#paint0_linear_20162_2433)" mask="url(#path-1-outside-1_20162_2433)"></path></g><defs><linearGradient id="paint0_linear_20162_2433" x1="865.338" y1="691.441" x2="-36.3126" y2="414.724" gradientUnits="userSpaceOnUse"><stop stop-color="#F89A2B"></stop><stop offset="1" stop-color="#F89A2B" stop-opacity="0"></stop></linearGradient></defs></svg>