<svg xmlns="http://www.w3.org/2000/svg" width="749" height="712" viewBox="0 0 749 712" fill="none"><g opacity="0.3"><mask id="path-1-outside-1_20162_2432" maskUnits="userSpaceOnUse" x="-0.662109" y="-0.558594" width="750" height="713" fill="black"><rect fill="white" x="-0.662109" y="-0.558594" width="750" height="713"></rect><path d="M378.093 349.549C431.177 166.906 437.475 31.0489 343.004 30.1492C248.534 30.1492 176.557 168.706 125.273 348.649C73.0893 531.292 62.2927 680.645 156.763 680.645C250.334 681.545 325.91 531.292 378.093 349.549ZM349.302 8.55598C475.263 8.55598 533.744 111.124 465.366 349.549C397.887 584.375 276.425 703.138 150.465 703.138C23.6048 703.138 -29.4785 584.375 38.0003 349.549C105.479 113.823 222.442 8.55598 349.302 8.55598ZM568.412 62.539L572.011 45.4444C610.698 41.8455 672.779 14.854 737.559 14.854L599.902 489.905C589.105 526.793 555.816 636.559 563.013 664.45C564.813 673.447 582.807 676.146 594.504 677.046L590.005 691.441H413.66L418.159 677.046C429.855 676.146 449.649 673.447 456.847 664.45C479.34 636.559 509.93 526.793 519.827 489.905C551.317 381.039 634.091 98.5277 627.793 61.6393C625.994 58.0404 622.395 56.241 616.996 56.241C602.601 56.241 579.208 66.1379 568.412 62.539Z"></path></mask><path d="M378.093 349.549L369.878 347.161L369.874 347.174L369.87 347.188L378.093 349.549ZM343.004 30.1492L343.086 21.5938L343.045 21.5934H343.004V30.1492ZM125.273 348.649L133.499 351L133.501 350.994L125.273 348.649ZM156.763 680.645L156.845 672.089L156.804 672.089H156.763V680.645ZM465.366 349.549L473.589 351.912L473.59 351.907L465.366 349.549ZM38.0003 349.549L46.2233 351.912L46.2257 351.903L38.0003 349.549ZM378.093 349.549L386.309 351.937C412.901 260.442 428.118 179.622 424.42 121.155C422.572 91.9263 415.941 67.2221 402.635 49.5959C388.992 31.5232 369.047 21.8411 343.086 21.5938L343.004 30.1492L342.923 38.7047C364.197 38.9072 378.892 46.5447 388.978 59.9058C399.402 73.7135 405.592 94.5576 407.343 122.235C410.843 177.584 396.369 256.013 369.878 347.161L378.093 349.549ZM343.004 30.1492V21.5934C291.197 21.5934 247.352 59.5444 210.717 117.34C173.86 175.487 142.775 256.021 117.045 346.304L125.273 348.649L133.501 350.994C159.054 261.334 189.6 182.617 225.17 126.501C260.963 70.0323 300.342 38.705 343.004 38.705V30.1492ZM125.273 348.649L117.046 346.299C90.9015 437.805 74.8264 521.901 77.4748 583.505C78.7969 614.258 84.8171 640.497 97.5738 659.264C110.712 678.593 130.473 689.201 156.763 689.201V680.645V672.089C135.818 672.089 121.502 664.027 111.726 649.645C101.568 634.701 95.8352 612.187 94.5706 582.77C92.0456 524.037 107.461 442.135 133.499 351L125.273 348.649ZM156.763 680.645L156.681 689.2C208.337 689.697 252.875 648.641 290.23 588.079C327.937 526.948 360.135 443.096 386.317 351.91L378.093 349.549L369.87 347.188C343.868 437.745 312.186 519.89 275.666 579.096C238.795 638.872 198.76 672.492 156.845 672.089L156.763 680.645ZM349.302 8.55597V17.1118C379.662 17.1118 405.304 23.2924 425.775 35.6346C446.15 47.9189 461.965 66.6411 472.25 92.7759C493.01 145.531 491.184 228.491 457.142 347.19L465.366 349.549L473.59 351.907C507.927 232.181 511.049 144.645 488.173 86.5101C476.639 57.1999 458.491 35.3784 434.61 20.9805C410.826 6.64056 381.923 0.000183105 349.302 0.000183105V8.55597ZM465.366 349.549L457.143 347.186C389.93 581.089 270.365 694.582 150.465 694.582V703.138V711.694C282.486 711.694 405.845 587.662 473.589 351.912L465.366 349.549ZM150.465 703.138V694.582C120.091 694.582 94.7573 687.484 74.6962 673.838C54.67 660.215 39.2666 639.64 29.4298 611.573C9.61674 555.042 12.6518 468.741 46.2233 351.912L38.0003 349.549L29.7773 347.186C-4.13005 465.183 -8.2927 555.677 13.2813 617.233C24.1379 648.21 41.5742 672.002 65.0719 687.986C88.5345 703.946 117.409 711.694 150.465 711.694V703.138ZM38.0003 349.549L46.2257 351.903C113.347 117.428 228.294 17.1118 349.302 17.1118V8.55597V0.000183105C216.59 0.000183105 97.6116 110.218 29.7749 347.194L38.0003 349.549ZM568.412 62.539L560.039 60.7764L558.468 68.2429L565.706 70.6558L568.412 62.539ZM572.011 45.4444L571.218 36.9254L564.938 37.5096L563.638 43.6818L572.011 45.4444ZM737.559 14.854L745.776 17.2353L748.946 6.29822H737.559V14.854ZM599.902 489.905L608.113 492.308L608.116 492.297L608.12 492.286L599.902 489.905ZM563.013 664.45L571.403 662.772L571.357 662.541L571.298 662.312L563.013 664.45ZM594.504 677.046L602.67 679.598L605.876 669.34L595.16 668.515L594.504 677.046ZM590.005 691.441V699.997H596.295L598.171 693.993L590.005 691.441ZM413.66 691.441L405.494 688.889L402.023 699.997H413.66V691.441ZM418.159 677.046L417.503 668.515L411.722 668.96L409.993 674.494L418.159 677.046ZM456.847 664.45L450.187 659.079L450.176 659.092L450.166 659.105L456.847 664.45ZM519.827 489.905L511.608 487.527L511.585 487.607L511.563 487.688L519.827 489.905ZM627.793 61.6393L636.227 60.1994L636.013 58.9482L635.446 57.813L627.793 61.6393ZM568.412 62.539L576.784 64.3016L580.383 47.207L572.011 45.4444L563.638 43.6818L560.039 60.7764L568.412 62.539ZM572.011 45.4444L572.803 53.9634C593.027 52.0821 619.39 44.1033 647.098 37.0942C675.4 29.9349 706.271 23.4098 737.559 23.4098V14.854V6.29822C704.067 6.29822 671.508 13.2689 642.902 20.5051C613.703 27.8914 589.682 35.2078 571.218 36.9254L572.011 45.4444ZM737.559 14.854L729.341 12.4727L591.684 487.523L599.902 489.905L608.12 492.286L745.776 17.2353L737.559 14.854ZM599.902 489.905L591.69 487.501C586.316 505.863 575.23 542.74 566.403 578.501C561.991 596.375 558.1 614.143 555.766 629.296C554.6 636.87 553.801 643.926 553.541 650.094C553.286 656.13 553.516 661.885 554.729 666.588L563.013 664.45L571.298 662.312C570.712 660.042 570.407 656.266 570.637 650.816C570.862 645.498 571.568 639.115 572.679 631.9C574.9 617.475 578.656 600.267 583.016 582.602C591.734 547.284 602.691 510.835 608.113 492.308L599.902 489.905ZM563.013 664.45L554.624 666.128C555.633 671.174 558.825 674.703 562.04 677.024C565.214 679.315 568.973 680.862 572.521 681.959C579.636 684.158 587.823 685.113 593.847 685.577L594.504 677.046L595.16 668.515C589.488 668.079 582.83 667.235 577.574 665.61C574.935 664.795 573.128 663.924 572.056 663.15C571.026 662.406 571.294 662.224 571.403 662.772L563.013 664.45ZM594.504 677.046L586.337 674.494L581.839 688.889L590.005 691.441L598.171 693.993L602.67 679.598L594.504 677.046ZM590.005 691.441V682.886H413.66V691.441V699.997H590.005V691.441ZM413.66 691.441L421.827 693.993L426.325 679.598L418.159 677.046L409.993 674.494L405.494 688.889L413.66 691.441ZM418.159 677.046L418.815 685.577C424.872 685.111 433.325 684.162 441.355 682.062C448.951 680.075 458.089 676.593 463.528 669.795L456.847 664.45L450.166 659.105C448.407 661.304 444.049 663.67 437.025 665.507C430.434 667.231 423.142 668.082 417.503 668.515L418.159 677.046ZM456.847 664.45L463.507 669.821C469.957 661.823 476.472 648.738 482.678 633.899C488.984 618.822 495.304 601.101 501.187 583.226C512.958 547.462 523.128 510.619 528.091 492.122L519.827 489.905L511.563 487.688C506.629 506.079 496.555 542.563 484.933 577.877C479.12 595.54 472.957 612.796 466.892 627.297C460.727 642.036 454.983 653.131 450.187 659.079L456.847 664.45ZM519.827 489.905L528.046 492.282C543.781 437.883 572.375 339.944 596.244 250.998C608.176 206.534 618.955 164.215 626.363 130.653C630.065 113.883 632.951 99.1819 634.715 87.4377C636.413 76.126 637.279 66.3602 636.227 60.1994L627.793 61.6393L619.359 63.0792C619.882 66.1405 619.538 73.2725 617.793 84.8966C616.112 96.0881 613.319 110.361 609.654 126.965C602.329 160.151 591.628 202.18 579.717 246.563C555.901 335.311 527.363 433.06 511.608 487.527L519.827 489.905ZM627.793 61.6393L635.446 57.813C631.697 50.3168 624.343 47.6852 616.996 47.6852V56.241V64.7968C618.8 64.7968 619.641 65.1047 619.918 65.2431C619.984 65.2761 620.021 65.3005 620.037 65.3119C620.045 65.3179 620.05 65.322 620.052 65.3239C620.055 65.3259 620.056 65.327 620.056 65.3274C620.057 65.3278 620.058 65.3289 620.06 65.3313C620.062 65.3336 620.066 65.3386 620.072 65.347C620.083 65.363 620.108 65.3996 620.141 65.4656L627.793 61.6393ZM616.996 56.241V47.6852C608.564 47.6852 597.766 50.5275 589.476 52.3925C585.009 53.3977 581.033 54.2006 577.622 54.5661C574.052 54.9487 572.047 54.7323 571.117 54.4223L568.412 62.539L565.706 70.6558C570.174 72.1451 575.143 72.0413 579.445 71.5803C583.906 71.1024 588.703 70.1058 593.233 69.0867C602.938 66.903 611.033 64.7968 616.996 64.7968V56.241Z" fill="url(#paint0_linear_20162_2432)" mask="url(#path-1-outside-1_20162_2432)"></path></g><defs><linearGradient id="paint0_linear_20162_2432" x1="605.338" y1="691.441" x2="-76.5705" y2="539.621" gradientUnits="userSpaceOnUse"><stop stop-color="#F89A2B"></stop><stop offset="1" stop-color="#F89A2B" stop-opacity="0"></stop></linearGradient></defs></svg>