<svg xmlns="http://www.w3.org/2000/svg" width="943" height="712" viewBox="0 0 943 712" fill="none"><g opacity="0.3"><mask id="path-1-outside-1_20163_2435" maskUnits="userSpaceOnUse" x="-0.662109" y="-0.558594" width="944" height="713" fill="black"><rect fill="white" x="-0.662109" y="-0.558594" width="944" height="713"></rect><path d="M378.093 349.549C431.177 166.906 437.475 31.0489 343.004 30.1492C248.534 30.1492 176.557 168.706 125.273 348.649C73.0893 531.292 62.2927 680.645 156.763 680.645C250.334 681.545 325.91 531.292 378.093 349.549ZM349.302 8.55598C475.263 8.55598 533.744 111.124 465.366 349.549C397.887 584.375 276.425 703.138 150.465 703.138C23.6048 703.138 -29.4785 584.375 38.0003 349.549C105.479 113.823 222.442 8.55598 349.302 8.55598ZM832.929 85.9317L518.028 407.131L740.258 405.331C772.648 287.468 799.639 201.995 832.929 85.9317ZM651.186 664.45C676.378 633.86 720.464 475.509 733.06 431.423H475.741L480.239 414.328L872.516 13.9543H930.998L818.533 407.131H922.001L914.803 431.423H811.335C796.94 481.807 749.255 632.06 758.252 664.45C760.051 673.447 778.046 676.146 789.742 677.046L785.244 691.441H608.899L613.398 677.046C625.094 676.146 644.888 673.447 651.186 664.45Z"></path></mask><path d="M378.093 349.549L369.878 347.161L369.874 347.174L369.87 347.188L378.093 349.549ZM343.004 30.1492L343.086 21.5938L343.045 21.5934H343.004V30.1492ZM125.273 348.649L133.499 351L133.501 350.994L125.273 348.649ZM156.763 680.645L156.845 672.089L156.804 672.089H156.763V680.645ZM465.366 349.549L473.589 351.912L473.59 351.907L465.366 349.549ZM38.0003 349.549L46.2233 351.912L46.2257 351.903L38.0003 349.549ZM378.093 349.549L386.309 351.937C412.901 260.442 428.118 179.622 424.42 121.155C422.572 91.9263 415.941 67.2221 402.635 49.5959C388.992 31.5232 369.047 21.8411 343.086 21.5938L343.004 30.1492L342.923 38.7047C364.197 38.9072 378.892 46.5447 388.978 59.9058C399.402 73.7135 405.592 94.5576 407.343 122.235C410.843 177.584 396.369 256.013 369.878 347.161L378.093 349.549ZM343.004 30.1492V21.5934C291.197 21.5934 247.352 59.5444 210.717 117.34C173.86 175.487 142.775 256.021 117.045 346.304L125.273 348.649L133.501 350.994C159.054 261.334 189.6 182.617 225.17 126.501C260.963 70.0323 300.342 38.705 343.004 38.705V30.1492ZM125.273 348.649L117.046 346.299C90.9015 437.805 74.8264 521.901 77.4748 583.505C78.7969 614.258 84.8171 640.497 97.5738 659.264C110.712 678.593 130.473 689.201 156.763 689.201V680.645V672.089C135.818 672.089 121.502 664.027 111.726 649.645C101.568 634.701 95.8352 612.187 94.5706 582.77C92.0456 524.037 107.461 442.135 133.499 351L125.273 348.649ZM156.763 680.645L156.681 689.2C208.337 689.697 252.875 648.641 290.23 588.079C327.937 526.948 360.135 443.096 386.317 351.91L378.093 349.549L369.87 347.188C343.868 437.745 312.186 519.89 275.666 579.096C238.795 638.872 198.76 672.492 156.845 672.089L156.763 680.645ZM349.302 8.55597V17.1118C379.662 17.1118 405.304 23.2924 425.775 35.6346C446.15 47.9189 461.965 66.6411 472.25 92.7759C493.01 145.531 491.184 228.491 457.142 347.19L465.366 349.549L473.59 351.907C507.927 232.181 511.049 144.645 488.173 86.5101C476.639 57.1999 458.491 35.3784 434.61 20.9805C410.826 6.64056 381.923 0.000183105 349.302 0.000183105V8.55597ZM465.366 349.549L457.143 347.186C389.93 581.089 270.365 694.582 150.465 694.582V703.138V711.694C282.486 711.694 405.845 587.662 473.589 351.912L465.366 349.549ZM150.465 703.138V694.582C120.091 694.582 94.7573 687.484 74.6962 673.838C54.67 660.215 39.2666 639.64 29.4298 611.573C9.61674 555.042 12.6518 468.741 46.2233 351.912L38.0003 349.549L29.7773 347.186C-4.13005 465.183 -8.2927 555.677 13.2813 617.233C24.1379 648.21 41.5742 672.002 65.0719 687.986C88.5345 703.946 117.409 711.694 150.465 711.694V703.138ZM38.0003 349.549L46.2257 351.903C113.347 117.428 228.294 17.1118 349.302 17.1118V8.55597V0.000183105C216.59 0.000183105 97.6116 110.218 29.7749 347.194L38.0003 349.549ZM832.929 85.9317L841.153 88.2905L826.819 79.942L832.929 85.9317ZM518.028 407.131L511.918 401.141L497.495 415.853L518.097 415.686L518.028 407.131ZM740.258 405.331L740.327 413.887L746.794 413.834L748.508 407.599L740.258 405.331ZM651.186 664.45L644.581 659.011L644.368 659.269L644.177 659.543L651.186 664.45ZM733.06 431.423L741.287 433.774L744.403 422.867H733.06V431.423ZM475.741 431.423L467.467 429.246L464.642 439.979H475.741V431.423ZM480.239 414.328L474.128 408.341L472.542 409.959L471.965 412.151L480.239 414.328ZM872.516 13.9543V5.3985H868.921L866.405 7.96655L872.516 13.9543ZM930.998 13.9543L939.224 16.3073L942.344 5.3985H930.998V13.9543ZM818.533 407.131L810.307 404.778L807.187 415.687H818.533V407.131ZM922.001 407.131L930.204 409.561L933.459 398.575H922.001V407.131ZM914.803 431.423V439.979H921.191L923.006 433.854L914.803 431.423ZM811.335 431.423V422.867H804.882L803.109 429.073L811.335 431.423ZM758.252 664.45L766.642 662.772L766.58 662.463L766.496 662.16L758.252 664.45ZM789.742 677.046L797.909 679.598L801.114 669.34L790.398 668.515L789.742 677.046ZM785.244 691.441V699.997H791.534L793.41 693.993L785.244 691.441ZM608.899 691.441L600.733 688.889L597.261 699.997H608.899V691.441ZM613.398 677.046L612.741 668.515L606.961 668.96L605.231 674.494L613.398 677.046ZM832.929 85.9317L826.819 79.942L511.918 401.141L518.028 407.131L524.137 413.12L839.038 91.9213L832.929 85.9317ZM518.028 407.131L518.097 415.686L740.327 413.887L740.258 405.331L740.188 396.776L517.958 398.575L518.028 407.131ZM740.258 405.331L748.508 407.599C780.898 289.733 807.777 204.656 841.153 88.2905L832.929 85.9317L824.704 83.5728C791.501 199.335 764.397 285.204 732.008 403.064L740.258 405.331ZM651.186 664.45L657.79 669.889C665.064 661.056 672.971 644.186 680.788 624.49C688.761 604.4 697.093 580.157 704.991 555.619C720.789 506.53 735.004 455.762 741.287 433.774L733.06 431.423L724.833 429.073C718.52 451.171 704.393 501.62 688.702 550.376C680.854 574.76 672.654 598.596 664.883 618.178C656.955 638.154 649.903 652.549 644.581 659.011L651.186 664.45ZM733.06 431.423V422.867H475.741V431.423V439.979H733.06V431.423ZM475.741 431.423L484.015 433.601L488.513 416.506L480.239 414.328L471.965 412.151L467.467 429.246L475.741 431.423ZM480.239 414.328L486.351 420.316L878.627 19.9421L872.516 13.9543L866.405 7.96655L474.128 408.341L480.239 414.328ZM872.516 13.9543V22.5101H930.998V13.9543V5.3985H872.516V13.9543ZM930.998 13.9543L922.772 11.6014L810.307 404.778L818.533 407.131L826.759 409.484L939.224 16.3073L930.998 13.9543ZM818.533 407.131V415.687H922.001V407.131V398.575H818.533V407.131ZM922.001 407.131L913.797 404.7L906.6 428.993L914.803 431.423L923.006 433.854L930.204 409.561L922.001 407.131ZM914.803 431.423V422.867H811.335V431.423V439.979H914.803V431.423ZM811.335 431.423L803.109 429.073C795.994 453.974 780.367 504.506 767.747 552.509C761.427 576.547 755.791 600.202 752.301 619.973C750.557 629.852 749.32 638.914 748.821 646.654C748.336 654.188 748.486 661.259 750.008 666.74L758.252 664.45L766.496 662.16C765.769 659.544 765.441 654.834 765.897 647.754C766.34 640.881 767.466 632.496 769.152 622.948C772.522 603.862 778.02 580.732 784.296 556.86C796.868 509.043 812.281 459.256 819.562 433.774L811.335 431.423ZM758.252 664.45L749.862 666.128C750.872 671.174 754.064 674.703 757.279 677.024C760.453 679.315 764.212 680.862 767.759 681.959C774.874 684.158 783.061 685.113 789.086 685.577L789.742 677.046L790.398 668.515C784.727 668.079 778.068 667.235 772.812 665.61C770.174 664.795 768.366 663.924 767.294 663.15C766.264 662.406 766.532 662.224 766.642 662.772L758.252 664.45ZM789.742 677.046L781.576 674.494L777.077 688.889L785.244 691.441L793.41 693.993L797.909 679.598L789.742 677.046ZM785.244 691.441V682.886H608.899V691.441V699.997H785.244V691.441ZM608.899 691.441L617.065 693.993L621.564 679.598L613.398 677.046L605.231 674.494L600.733 688.889L608.899 691.441ZM613.398 677.046L614.054 685.577C620.103 685.111 628.574 684.162 636.512 682.054C643.913 680.088 653.159 676.55 658.195 669.356L651.186 664.45L644.177 659.543C642.914 661.347 639.115 663.657 632.12 665.515C625.662 667.231 618.389 668.081 612.741 668.515L613.398 677.046Z" fill="url(#paint0_linear_20163_2435)" mask="url(#path-1-outside-1_20163_2435)"></path></g><defs><linearGradient id="paint0_linear_20163_2435" x1="846.338" y1="691.441" x2="-40.2541" y2="424.804" gradientUnits="userSpaceOnUse"><stop stop-color="#F89A2B"></stop><stop offset="1" stop-color="#F89A2B" stop-opacity="0"></stop></linearGradient></defs></svg>