<svg xmlns="http://www.w3.org/2000/svg" width="53" height="53" viewBox="0 0 53 53" fill="none"><circle opacity="0.2" cx="26.3359" cy="26.3359" r="26.3359" fill="#55DEB3"></circle><rect x="17.9609" y="17.9043" width="18.3867" height="18.1426" fill="white"></rect><path fill-rule="evenodd" clip-rule="evenodd" d="M26.3354 11.4688C34.5457 11.4688 41.2041 18.1271 41.2041 26.3374C41.2041 34.5477 34.5457 41.206 26.3354 41.206C18.1252 41.206 11.4668 34.5477 11.4668 26.3374C11.4668 18.1271 18.1252 11.4688 26.3354 11.4688ZM23.2478 31.1668L19.6076 27.5236C18.9874 26.9031 18.9873 25.8912 19.6076 25.2708C20.228 24.6505 21.2444 24.6544 21.8603 25.2708L24.4266 27.8391L30.8108 21.455C31.4312 20.8345 32.4433 20.8345 33.0635 21.455C33.684 22.0752 33.6831 23.0881 33.0635 23.7077L25.5512 31.22C24.9317 31.8396 23.9187 31.8405 23.2985 31.22C23.281 31.2026 23.2642 31.1849 23.2478 31.1668Z" fill="url(#paint0_linear_20138_2156)"></path><path d="M30.8117 21.4542C31.432 20.8343 32.4434 20.8343 33.0636 21.4542C33.684 22.0745 33.6832 23.0876 33.0636 23.7071L25.5519 31.2198C24.9324 31.8393 23.9193 31.8401 23.299 31.2198C23.2815 31.2024 23.2646 31.1842 23.2482 31.1661L19.6076 27.5235C18.9876 26.9031 18.9876 25.891 19.6076 25.2706C20.228 24.6503 21.2446 24.6542 21.8605 25.2706L24.4269 27.839L30.8117 21.4542Z" fill="white"></path><defs><linearGradient id="paint0_linear_20138_2156" x1="26.3354" y1="11.4688" x2="26.3354" y2="41.206" gradientUnits="userSpaceOnUse"><stop stop-color="#58E4B8"></stop><stop offset="1" stop-color="#45BD97"></stop></linearGradient></defs></svg>